# xmcd
#
# Track frame offsets:
#	150
#	15420
#	42107
#	209682
#	233887
#	289405
#
# Disc length: 4291 seconds
#
# Revision: 2
# Processed by: cddbd v1.5.2PL0 Copyright (c) Steve Scherf et al.
# Submitted via: audiograbber 1.83.01
#
DISCID=5110c106
DTITLE=Marsalis, Wynton - Blue interlude
DYEAR=1992
DGENRE=Jazz
TTITLE0=Brother veal
TTITLE1=Monologue for Sugar Cane and Sweetie Pie
TTITLE2=Blue interlude (The bittersweet saga of  Sugar Cane and Sweetie Pie)
TTITLE3=And the band played on
TTITLE4=The jubilee suite =Day to day - Running and rambling - Grace
TTITLE5=Sometimes it goes like that
EXTD=
EXTT0=
EXTT1=
EXTT2=
EXTT3=
EXTT4=
EXTT5=
PLAYORDER=
